<svg width="107" height="29" viewBox="0 0 107 29" fill="none" xmlns="http://www.w3.org/2000/svg">
<path d="M24.6133 15.2266C24.7109 15.2344 24.7871 15.2676 24.8418 15.3262C24.8965 15.3809 24.9199 15.4375 24.9121 15.4961C24.8848 15.5742 24.8438 15.625 24.7891 15.6484C24.7344 15.668 24.6758 15.6777 24.6133 15.6777C23.9609 15.6543 23.3086 15.6758 22.6562 15.7422C22.2188 15.7773 21.7754 15.8027 21.3262 15.8184C20.8809 15.8301 20.4395 15.8574 20.002 15.9004C19.8965 15.9082 19.793 15.916 19.6914 15.9238C19.4766 15.9238 19.373 16.0352 19.3809 16.2578C19.373 16.4297 19.3691 16.6055 19.3691 16.7852C19.3691 16.8398 19.3691 16.8887 19.3691 16.9316C19.3691 17.7637 19.3691 18.5957 19.3691 19.4277C19.3691 21.6621 19.3691 23.8965 19.3691 26.1309C19.3691 26.5293 19.3477 26.9258 19.3047 27.3203C19.2891 27.5273 19.168 27.6309 18.9414 27.6309C18.6758 27.6387 18.5215 27.543 18.4785 27.3438C18.4355 27.0195 18.4141 26.6973 18.4141 26.377C18.4141 24.1621 18.4141 21.9453 18.4141 19.7266C18.4141 19.0234 18.4141 18.3223 18.4141 17.623C18.4141 17.5215 18.4141 17.4238 18.4141 17.3301C18.4141 17.002 18.4102 16.6758 18.4023 16.3516C18.4102 16.082 18.2891 15.9648 18.0391 16C17.8438 16.0195 17.6465 16.0371 17.4473 16.0527C16.6074 16.123 15.7617 16.2051 14.9102 16.2988C14.1523 16.3848 13.4004 16.4824 12.6543 16.5918C12.3691 16.6348 12.0859 16.6738 11.8047 16.709C11.707 16.7285 11.6152 16.7461 11.5293 16.7617C11.4434 16.7773 11.3633 16.791 11.2891 16.8027C11.082 16.834 10.9824 16.9531 10.9902 17.1602C10.9824 17.4805 10.9785 17.7988 10.9785 18.1152C10.9707 18.5957 10.9668 19.0723 10.9668 19.5449C10.9668 20.2676 10.9668 20.9902 10.9668 21.7129C10.9668 22.4863 10.9609 23.2637 10.9492 24.0449C10.9609 24.2949 10.9492 24.5391 10.9141 24.7773C10.8789 25.0039 10.7363 25.1113 10.4863 25.0996C10.2285 25.1113 10.0879 25.0039 10.0645 24.7773C10.0293 24.4766 10.0117 24.1758 10.0117 23.875C10.0117 22.4062 10.0078 20.9375 10 19.4688C10 18.9961 10 18.5234 10 18.0508C9.98828 18 9.98828 17.9434 10 17.8809C10 17.7871 9.99414 17.6934 9.98242 17.5996C9.99414 17.3066 9.96875 17.1348 9.90625 17.084C9.84766 17.0332 9.67969 17.0371 9.40234 17.0957C7.48047 17.3887 5.57422 17.75 3.68359 18.1797C3.33984 18.2656 3.00195 18.3613 2.66992 18.4668C2.33789 18.5684 2.01367 18.7012 1.69727 18.8652C1.52539 18.9668 1.33594 19.0137 1.12891 19.0059C1.07031 18.998 1.01367 18.9805 0.958984 18.9531C0.900391 18.9258 0.853516 18.8828 0.818359 18.8242C0.794922 18.7539 0.800781 18.6934 0.835938 18.6426C0.867188 18.5918 0.908203 18.5488 0.958984 18.5137C1.20898 18.3184 1.48047 18.1719 1.77344 18.0742C1.78906 18.0742 1.80273 18.0703 1.81445 18.0625C2.51758 17.7969 3.23438 17.5957 3.96484 17.459C5.64844 17.0879 7.3418 16.7734 9.04492 16.5156C9.2832 16.4727 9.52734 16.4297 9.77734 16.3867C9.89062 16.3633 9.95117 16.2949 9.95898 16.1816C9.97461 15.959 9.98242 15.7363 9.98242 15.5137C9.99414 14.2832 10 13.0488 10 11.8105C10 10.127 10 8.44336 10 6.75977C10 6.00977 10.0078 5.26172 10.0234 4.51562C10.0391 4.13672 10.2363 3.97852 10.6152 4.04102C10.8145 4.06445 10.9258 4.17578 10.9492 4.375C10.9609 4.54688 10.9668 4.71875 10.9668 4.89062C10.9668 4.91406 10.9668 4.93945 10.9668 4.9668C10.9668 7.63086 10.9707 10.291 10.9785 12.9473C10.9785 13.7285 10.9785 14.5098 10.9785 15.291C10.9785 15.334 10.9785 15.377 10.9785 15.4199C10.9785 15.5059 10.9785 15.5879 10.9785 15.666C10.9785 15.9082 11.0059 16.0547 11.0605 16.1055C11.1152 16.1562 11.2598 16.1602 11.4941 16.1172C11.8379 16.0742 12.1777 16.0312 12.5137 15.9883C13.0098 15.918 13.5117 15.8535 14.0195 15.7949C14.9375 15.6934 15.8613 15.5996 16.791 15.5137C17.1504 15.4785 17.5156 15.4395 17.8867 15.3965C17.9219 15.3965 17.9609 15.3965 18.0039 15.3965C18.0625 15.3965 18.123 15.3867 18.1855 15.3672C18.3223 15.3438 18.3945 15.2578 18.4023 15.1094C18.4102 14.9141 18.4141 14.7168 18.4141 14.5176C18.4141 13.0137 18.4141 11.5137 18.4141 10.0176C18.4141 9.52148 18.4141 9.02734 18.4141 8.53516C18.4141 8.53516 18.418 8.53516 18.4258 8.53516C18.4258 8.16016 18.4258 7.7832 18.4258 7.4043C18.4258 5.78711 18.4258 4.16602 18.4258 2.54102C18.4258 2.47461 18.4258 2.40234 18.4258 2.32422C18.4375 2.22266 18.4434 2.12305 18.4434 2.02539C18.4512 1.82227 18.5352 1.69336 18.6953 1.63867C18.8594 1.58008 19.0117 1.58594 19.1523 1.65625C19.2461 1.70703 19.3008 1.7832 19.3164 1.88477C19.3359 2.08398 19.3457 2.28125 19.3457 2.47656C19.3535 5.85547 19.3613 9.23438 19.3691 12.6133C19.3691 13.1797 19.3691 13.7422 19.3691 14.3008C19.3691 14.3242 19.3691 14.3496 19.3691 14.377C19.3691 14.4551 19.3691 14.5273 19.3691 14.5938C19.3691 14.8359 19.377 15.0098 19.3926 15.1152C19.4121 15.2168 19.4629 15.2773 19.5449 15.2969C19.627 15.3125 19.7539 15.3145 19.9258 15.3027C19.9844 15.3027 20.0527 15.3027 20.1309 15.3027C20.9473 15.2871 21.7598 15.2715 22.5684 15.2559C23.0488 15.2363 23.5332 15.2227 24.0215 15.2148C24.2207 15.207 24.418 15.2109 24.6133 15.2266ZM30.6895 15.9883C30.584 16.3164 30.3711 16.6934 30.0508 17.1191C29.7344 17.541 29.3379 17.8125 28.8613 17.9336C28.3848 18.0547 27.9727 18.0391 27.625 17.8867C27.2773 17.7305 27.0859 17.3164 27.0508 16.6445C26.6562 17.4102 26.2793 17.9004 25.9199 18.1152C25.5645 18.3301 25.1934 18.4121 24.8066 18.3613C24.3691 18.291 24.0742 18.1211 23.9219 17.8516C23.7656 17.582 23.7129 17.2715 23.7637 16.9199C23.8145 16.5645 23.9219 16.2246 24.0859 15.9004C24.2148 15.6582 24.3926 15.4336 24.6191 15.2266C24.8496 15.0195 25.0898 14.8574 25.3398 14.7402C25.6484 14.584 25.959 14.5098 26.2715 14.5176C26.584 14.5254 26.918 14.6289 27.2734 14.8281C27.2812 14.8359 27.2852 14.8281 27.2852 14.8047C27.2852 14.7695 27.293 14.7266 27.3086 14.6758C27.3281 14.6211 27.3594 14.5781 27.4023 14.5469C27.5195 14.4609 27.6582 14.418 27.8184 14.418C27.9785 14.418 28.1016 14.498 28.1875 14.6582C28.2031 14.8652 28.1816 15.1289 28.123 15.4492C27.9941 16.1523 27.9941 16.6582 28.123 16.9668C28.252 17.2754 28.4785 17.4199 28.8027 17.4004C29.1309 17.377 29.5547 17.0547 30.0742 16.4336C30.5938 15.8086 30.7988 15.6602 30.6895 15.9883ZM24.9238 17.6406C25.1035 17.7695 25.3086 17.752 25.5391 17.5879C25.7734 17.4238 25.998 17.1914 26.2129 16.8906C26.4277 16.5898 26.6074 16.2891 26.752 15.9883C26.9004 15.6875 26.9824 15.4648 26.998 15.3203C26.5605 15.0859 26.1855 15.0469 25.873 15.2031C25.5605 15.3555 25.3105 15.6074 25.123 15.959C24.9395 16.3066 24.8301 16.6465 24.7949 16.9785C24.7598 17.3066 24.8027 17.5273 24.9238 17.6406ZM34.0117 16.1934C34.0859 16.041 34.1367 15.9707 34.1641 15.9824C34.1914 15.9941 34.1973 16.0566 34.1816 16.1699C34.1699 16.2793 34.1465 16.4043 34.1113 16.5449C34.0605 16.7598 33.9727 17.0098 33.8477 17.2949C33.7227 17.5762 33.584 17.832 33.4316 18.0625C33.2051 18.3828 32.9238 18.625 32.5879 18.7891C32.2559 18.9492 31.9531 18.9883 31.6797 18.9062C31.4102 18.8242 31.2539 18.5684 31.2109 18.1387C31.2031 17.7793 31.2344 17.3848 31.3047 16.9551C31.3281 16.7754 31.3535 16.5996 31.3809 16.4277C31.3809 16.3652 31.3652 16.3184 31.334 16.2871C31.3027 16.252 31.2617 16.2383 31.2109 16.2461C31.1758 16.2461 31.1367 16.2461 31.0938 16.2461C30.8789 16.2812 30.6602 16.2773 30.4375 16.2344C30.1719 16.1562 30.0176 16.0254 29.9746 15.8418C29.9316 15.6543 29.9355 15.4102 29.9863 15.1094C30.0137 14.8945 30.0938 14.7344 30.2266 14.6289C30.3594 14.5195 30.5156 14.4746 30.6953 14.4941C30.9453 14.5176 31.0664 14.6133 31.0586 14.7812C31.0508 14.9492 31.0039 15.1289 30.918 15.3203C30.8398 15.4805 30.7988 15.6152 30.7949 15.7246C30.791 15.8301 30.8828 15.8672 31.0703 15.8359C31.1133 15.8242 31.1602 15.8105 31.2109 15.7949C31.2812 15.7676 31.3613 15.7441 31.4512 15.7246C31.541 15.7012 31.6582 15.6953 31.8027 15.707C31.9746 15.7148 32.0879 15.7949 32.1426 15.9473C32.2012 16.0957 32.2266 16.2832 32.2188 16.5098C32.2109 16.7363 32.1895 16.9668 32.1543 17.2012C32.1113 17.4941 32.0898 17.7461 32.0898 17.957C32.0898 18.1641 32.1504 18.2852 32.2715 18.3203C32.4316 18.3633 32.6699 18.2188 32.9863 17.8867C33.3066 17.5508 33.6484 16.9863 34.0117 16.1934ZM37.416 15.8008C37.416 15.8906 37.2266 16.0508 36.8477 16.2812C36.4688 16.5078 36.1895 16.6797 36.0098 16.7969C35.8301 16.9102 35.7402 16.9805 35.7402 17.0078C35.7754 17.0859 35.8125 17.2168 35.8516 17.4004C35.8906 17.584 35.9043 17.7832 35.8926 17.998C35.8848 18.2129 35.8164 18.4043 35.6875 18.5723C35.5586 18.7402 35.3438 18.8418 35.043 18.877C34.7422 18.9004 34.4727 18.8555 34.2344 18.7422C34 18.625 33.8535 18.457 33.7949 18.2383C33.7324 18.0195 33.8047 17.7637 34.0117 17.4707C34.1484 17.3066 34.3125 17.1641 34.5039 17.043C34.5703 17 34.6387 16.9531 34.709 16.9023C34.4785 16.6523 34.2598 16.3965 34.0527 16.1348C33.8457 15.873 33.7129 15.6387 33.6543 15.4316C33.5918 15.1934 33.6328 14.9688 33.7773 14.7578C33.918 14.5469 34.1641 14.4238 34.5156 14.3887C34.6875 14.373 34.8477 14.3828 34.9961 14.418C35.1484 14.4492 35.2891 14.5215 35.418 14.6348C35.4453 14.6621 35.4648 14.6934 35.4766 14.7285C35.4883 14.7598 35.4824 14.8008 35.459 14.8516C35.416 14.9297 35.3516 14.9688 35.2656 14.9688C35.2031 14.9688 35.1426 14.9609 35.084 14.9453C35.0215 14.918 34.9648 14.8926 34.9141 14.8691C34.8789 14.8496 34.8457 14.832 34.8145 14.8164C34.7012 14.7734 34.6133 14.7793 34.5508 14.834C34.4922 14.8887 34.4629 14.9727 34.4629 15.0859C34.4707 15.2852 34.5527 15.498 34.709 15.7246C34.8652 15.9512 35.0195 16.1602 35.1719 16.3516C35.2344 16.418 35.2871 16.4824 35.3301 16.5449C35.373 16.5879 35.4863 16.582 35.6699 16.5273C35.8535 16.4688 36.1895 16.3105 36.6777 16.0527C37.1699 15.7949 37.416 15.7109 37.416 15.8008ZM34.7969 18.4375C34.9102 18.4297 34.9844 18.3672 35.0195 18.25C35.0547 18.1328 35.0664 18.0039 35.0547 17.8633C35.0469 17.7227 35.0391 17.6172 35.0312 17.5469C35.0156 17.5039 34.9883 17.4766 34.9492 17.4648C34.9102 17.4531 34.873 17.4551 34.8379 17.4707C34.709 17.5723 34.6133 17.7012 34.5508 17.8574C34.4922 18.0137 34.498 18.1504 34.5684 18.2676C34.5918 18.3105 34.623 18.3477 34.6621 18.3789C34.7012 18.4102 34.7461 18.4297 34.7969 18.4375ZM42.7656 16.1582C43.0977 15.7871 43.2715 15.6445 43.2871 15.7305C43.3066 15.8164 43.2363 16.0176 43.0762 16.334C42.916 16.6465 42.668 16.9141 42.332 17.1367C42.0859 17.2891 41.873 17.3926 41.6934 17.4473C41.5176 17.498 41.3574 17.5273 41.2129 17.5352C40.9277 17.5508 40.709 17.4688 40.5566 17.2891C40.4082 17.1094 40.3047 16.8789 40.2461 16.5977C40.1875 16.3125 40.1445 16.0195 40.1172 15.7188C40.0898 15.5273 40.0645 15.3555 40.041 15.2031C40.0059 14.9609 39.9355 14.8281 39.8301 14.8047C39.7285 14.7773 39.5703 14.9316 39.3555 15.2676C39.1328 15.627 38.9375 16.0234 38.7695 16.457C38.6016 16.8906 38.4531 17.3145 38.3242 17.7285C38.3164 17.7441 38.3086 17.7656 38.3008 17.793C38.2734 17.8516 38.252 17.9121 38.2363 17.9746C38.1855 18.1465 38.125 18.3145 38.0547 18.4785C37.9961 18.6152 37.8945 18.7051 37.75 18.748C37.6094 18.791 37.4609 18.7812 37.3047 18.7188C37.2031 18.6758 37.1348 18.6035 37.0996 18.502C37.0488 18.3457 37.0312 18.1875 37.0469 18.0273C37.0469 18.0078 37.0469 17.9941 37.0469 17.9863C37.082 17.3066 37.0879 16.1758 37.0645 14.5938C37.0449 13.332 37.0352 11.9746 37.0352 10.5215C37.0352 9.06836 37.0723 7.69727 37.1465 6.4082C37.2207 5.11914 37.3477 4.08789 37.5273 3.31445C37.6055 3.0332 37.7344 2.78125 37.9141 2.55859C38.0938 2.33203 38.293 2.20898 38.5117 2.18945C38.7305 2.16602 38.9355 2.31445 39.127 2.63477C39.2559 2.9082 39.3359 3.19922 39.3672 3.50781C39.4531 4.42188 39.375 5.82617 39.1328 7.7207C38.8945 9.61523 38.6445 11.2734 38.3828 12.6953C38.1211 14.1172 37.9902 15.3047 37.9902 16.2578C38.0762 16.1133 38.1621 15.959 38.248 15.7949C38.3691 15.5527 38.5039 15.3125 38.6523 15.0742C38.8047 14.832 38.9824 14.627 39.1855 14.459C39.3926 14.291 39.6426 14.1855 39.9355 14.1426C40.1348 14.1113 40.3359 14.125 40.5391 14.1836C40.7461 14.2422 40.8848 14.3848 40.9551 14.6113C41.041 15.0059 41.0703 15.4258 41.043 15.8711C41.043 16.3438 41.125 16.6426 41.2891 16.7676C41.4531 16.8926 41.6562 16.9141 41.8984 16.832C42.1445 16.75 42.4336 16.5254 42.7656 16.1582ZM38.3887 4.04102C38.3457 4.5293 38.2969 5.3457 38.2422 6.49023C38.1875 7.63086 38.1406 8.77539 38.1016 9.92383C38.0625 11.0723 38.043 12.0273 38.043 12.7891C38.1367 12.1016 38.25 11.207 38.3828 10.1055C38.5156 9 38.6328 7.86328 38.7344 6.69531C38.8398 5.52734 38.8926 4.65039 38.8926 4.06445C38.8848 3.75586 38.8633 3.52734 38.8281 3.37891C38.793 3.22656 38.7344 3.17188 38.6523 3.21484C38.5703 3.25781 38.5078 3.36719 38.4648 3.54297C38.4219 3.71875 38.3965 3.88477 38.3887 4.04102ZM68.7285 2.36523C69.2988 2.82617 69.7637 3.35352 70.123 3.94727C70.4824 4.54102 70.7227 5.20703 70.8438 5.94531C70.9062 6.32422 70.9199 6.69922 70.8848 7.07031C70.8496 7.4375 70.7852 7.80273 70.6914 8.16602C70.543 8.76758 70.3281 9.33984 70.0469 9.88281C69.7695 10.4219 69.4434 10.9355 69.0684 11.4238C68.5684 12.0605 68.0098 12.6289 67.3926 13.1289C66.7793 13.625 66.125 14.0762 65.4297 14.4824C63.9609 15.3418 62.418 16.041 60.8008 16.5801C60.6914 16.623 60.5762 16.666 60.4551 16.709C60.291 16.7598 60.1738 16.8047 60.1035 16.8438C60.0371 16.8828 59.9941 16.9414 59.9746 17.0195C59.959 17.0977 59.9512 17.2188 59.9512 17.3828C59.9512 19.418 59.9473 21.4492 59.9395 23.4766C59.9395 23.7422 59.9395 24.0039 59.9395 24.2617C59.9395 24.2812 59.9395 24.2949 59.9395 24.3027C59.9395 24.4473 59.9375 24.5898 59.9336 24.7305C59.9297 24.875 59.9062 25.0156 59.8633 25.1523C59.8008 25.3867 59.6582 25.498 59.4355 25.4863C59.2402 25.4785 59.1113 25.3809 59.0488 25.1934C58.9707 24.8848 58.9375 24.5664 58.9492 24.2383C58.9492 23.9297 58.9492 23.6211 58.9492 23.3125C58.9492 21.5742 58.9492 19.8379 58.9492 18.1035C58.9492 18.041 58.9492 17.9766 58.9492 17.9102C58.9727 17.7031 58.9512 17.4785 58.8848 17.2363C58.7637 17.248 58.6562 17.2695 58.5625 17.3008C58.4062 17.3438 58.2559 17.3535 58.1113 17.3301C58.0566 17.3223 58.0078 17.3086 57.9648 17.2891C57.9219 17.2656 57.8965 17.2227 57.8887 17.1602C57.8887 17.0391 57.9414 16.9629 58.0469 16.9316C58.25 16.8457 58.459 16.7715 58.6738 16.709C58.8652 16.6426 58.957 16.5098 58.9492 16.3105C58.9492 16.1895 58.9492 16.0645 58.9492 15.9355C58.9492 15.8691 58.9492 15.7969 58.9492 15.7188C58.9492 14.6797 58.9492 13.6445 58.9492 12.6133C58.957 10.3086 58.9609 8 58.9609 5.6875C58.9609 5.66406 58.9609 5.63477 58.9609 5.59961C58.9609 5.42773 58.9648 5.25977 58.9727 5.0957C59 4.79492 59.1641 4.64453 59.4648 4.64453C59.7539 4.65234 59.9121 4.80664 59.9395 5.10742C59.9473 5.25586 59.9473 5.40234 59.9395 5.54688C59.9395 5.59766 59.9395 5.64844 59.9395 5.69922C59.9395 6.42188 59.9395 7.14062 59.9395 7.85547C59.9473 10.3555 59.9512 12.8555 59.9512 15.3555C59.9512 15.418 59.9512 15.4824 59.9512 15.5488C59.9355 15.7559 59.9531 15.959 60.0039 16.1582C60.0547 16.2012 60.1035 16.2188 60.1504 16.2109C60.1973 16.1992 60.2422 16.1855 60.2852 16.1699C61.4883 15.7207 62.6426 15.1875 63.748 14.5703C64.8535 13.9531 65.8867 13.2227 66.8477 12.3789C68.0938 11.2891 68.9746 9.94922 69.4902 8.35938C69.7559 7.48047 69.8301 6.66602 69.7129 5.91602C69.5996 5.16211 69.334 4.48633 68.916 3.88867C68.502 3.29102 67.9766 2.7832 67.3398 2.36523C66.2383 1.64258 64.9297 1.19531 63.4141 1.02344C61.8984 0.851562 60.3086 0.908203 58.6445 1.19336C56.9805 1.47461 55.375 1.93359 53.8281 2.57031C52.2812 3.20703 50.9258 3.97266 49.7617 4.86719C48.5977 5.75781 47.7539 6.72266 47.2305 7.76172C47.1094 7.96875 47.0234 8.18555 46.9727 8.41211C46.9219 8.63477 46.9258 8.86914 46.9844 9.11523C47.0195 9.25586 47 9.36133 46.9258 9.43164C46.8516 9.49805 46.7461 9.52148 46.6094 9.50195C46.3359 9.45898 46.1465 9.31445 46.041 9.06836C45.9551 8.85352 45.9395 8.63281 45.9941 8.40625C46.0879 7.96094 46.2637 7.55273 46.5215 7.18164C47.3535 5.9707 48.5098 4.89453 49.9902 3.95312C51.4746 3.01172 53.1191 2.24023 54.9238 1.63867C56.7285 1.03711 58.5332 0.648438 60.3379 0.472656C62.1426 0.296875 63.7793 0.373047 65.248 0.701172C65.8926 0.845703 66.5039 1.05469 67.082 1.32812C67.6641 1.59766 68.2129 1.94336 68.7285 2.36523ZM71.4766 16.1934C71.5508 16.041 71.6016 15.9707 71.6289 15.9824C71.6562 15.9941 71.6621 16.0566 71.6465 16.1699C71.6348 16.2793 71.6113 16.4043 71.5762 16.5449C71.5254 16.7598 71.4375 17.0098 71.3125 17.2949C71.1875 17.5762 71.0488 17.832 70.8965 18.0625C70.6699 18.3828 70.3887 18.625 70.0527 18.7891C69.7207 18.9492 69.418 18.9883 69.1445 18.9062C68.875 18.8242 68.7188 18.5684 68.6758 18.1387C68.668 17.7793 68.6992 17.3848 68.7695 16.9551C68.793 16.7754 68.8184 16.5996 68.8457 16.4277C68.8457 16.3652 68.8301 16.3184 68.7988 16.2871C68.7676 16.252 68.7266 16.2383 68.6758 16.2461C68.6406 16.2461 68.6016 16.2461 68.5586 16.2461C68.3438 16.2812 68.125 16.2773 67.9023 16.2344C67.6367 16.1562 67.4824 16.0254 67.4395 15.8418C67.3965 15.6543 67.4004 15.4102 67.4512 15.1094C67.4785 14.8945 67.5586 14.7344 67.6914 14.6289C67.8242 14.5195 67.9805 14.4746 68.1602 14.4941C68.4102 14.5176 68.5312 14.6133 68.5234 14.7812C68.5156 14.9492 68.4688 15.1289 68.3828 15.3203C68.3047 15.4805 68.2637 15.6152 68.2598 15.7246C68.2559 15.8301 68.3477 15.8672 68.5352 15.8359C68.5781 15.8242 68.625 15.8105 68.6758 15.7949C68.7461 15.7676 68.8262 15.7441 68.916 15.7246C69.0059 15.7012 69.123 15.6953 69.2676 15.707C69.4395 15.7148 69.5527 15.7949 69.6074 15.9473C69.666 16.0957 69.6914 16.2832 69.6836 16.5098C69.6758 16.7363 69.6543 16.9668 69.6191 17.2012C69.5762 17.4941 69.5547 17.7461 69.5547 17.957C69.5547 18.1641 69.6152 18.2852 69.7363 18.3203C69.8965 18.3633 70.1348 18.2188 70.4512 17.8867C70.7715 17.5508 71.1133 16.9863 71.4766 16.1934ZM77.9512 15.9883C77.8457 16.3164 77.6328 16.6934 77.3125 17.1191C76.9961 17.541 76.5996 17.8125 76.123 17.9336C75.6465 18.0547 75.2344 18.0391 74.8867 17.8867C74.5391 17.7305 74.3477 17.3164 74.3125 16.6445C73.918 17.4102 73.541 17.9004 73.1816 18.1152C72.8262 18.3301 72.4551 18.4121 72.0684 18.3613C71.6309 18.291 71.3359 18.1211 71.1836 17.8516C71.0273 17.582 70.9746 17.2715 71.0254 16.9199C71.0762 16.5645 71.1836 16.2246 71.3477 15.9004C71.4766 15.6582 71.6543 15.4336 71.8809 15.2266C72.1113 15.0195 72.3516 14.8574 72.6016 14.7402C72.9102 14.584 73.2207 14.5098 73.5332 14.5176C73.8457 14.5254 74.1797 14.6289 74.5352 14.8281C74.543 14.8359 74.5469 14.8281 74.5469 14.8047C74.5469 14.7695 74.5547 14.7266 74.5703 14.6758C74.5898 14.6211 74.6211 14.5781 74.6641 14.5469C74.7812 14.4609 74.9199 14.418 75.0801 14.418C75.2402 14.418 75.3633 14.498 75.4492 14.6582C75.4648 14.8652 75.4434 15.1289 75.3848 15.4492C75.2559 16.1523 75.2559 16.6582 75.3848 16.9668C75.5137 17.2754 75.7402 17.4199 76.0645 17.4004C76.3926 17.377 76.8164 17.0547 77.3359 16.4336C77.8555 15.8086 78.0605 15.6602 77.9512 15.9883ZM72.1855 17.6406C72.3652 17.7695 72.5703 17.752 72.8008 17.5879C73.0352 17.4238 73.2598 17.1914 73.4746 16.8906C73.6895 16.5898 73.8691 16.2891 74.0137 15.9883C74.1621 15.6875 74.2441 15.4648 74.2598 15.3203C73.8223 15.0859 73.4473 15.0469 73.1348 15.2031C72.8223 15.3555 72.5723 15.6074 72.3848 15.959C72.2012 16.3066 72.0918 16.6465 72.0566 16.9785C72.0215 17.3066 72.0645 17.5273 72.1855 17.6406ZM78.1914 13.1934C78.0469 13.209 77.9434 13.1602 77.8809 13.0469C77.8223 12.9297 77.8398 12.8281 77.9336 12.7422C78.0391 12.6562 78.1621 12.6094 78.3027 12.6016C78.4434 12.5898 78.5703 12.623 78.6836 12.7012C78.707 12.7168 78.7246 12.7383 78.7363 12.7656C78.7363 12.7812 78.7402 12.7988 78.748 12.8184C78.7402 12.8262 78.7363 12.8379 78.7363 12.8535C78.7246 12.8809 78.7109 12.9082 78.6953 12.9355C78.5586 13.0801 78.3906 13.166 78.1914 13.1934ZM81.9824 16.0762C82.041 16.1035 82.0625 16.1426 82.0469 16.1934C82.0312 16.2441 82.002 16.2871 81.959 16.3223C81.8301 16.4355 81.7051 16.543 81.584 16.6445C81.1543 17.0078 80.7344 17.3691 80.3242 17.7285C79.918 18.0879 79.5039 18.4824 79.082 18.9121C78.7969 19.1895 78.5938 19.4062 78.4727 19.5625C78.3555 19.7227 78.2812 19.8984 78.25 20.0898C78.2188 20.2852 78.1992 20.5762 78.1914 20.9629C78.1562 22.5605 77.9941 24.1504 77.7051 25.7324C77.6074 26.2676 77.4512 26.7871 77.2363 27.291C77.127 27.5762 76.9648 27.8301 76.75 28.0527C76.543 28.2676 76.2852 28.3789 75.9766 28.3867C75.582 28.4062 75.2988 28.2559 75.127 27.9355C74.9629 27.627 74.8672 27.3047 74.8398 26.9688C74.7891 26.4023 74.8008 25.8398 74.875 25.2812C74.9453 24.7227 75.0586 24.168 75.2148 23.6172C75.5664 22.3828 76.168 21.2539 77.0195 20.2305C77.2852 19.8945 77.4141 19.5254 77.4062 19.123C77.4414 18.0918 77.4805 17.0645 77.5234 16.041C77.5391 15.7129 77.5508 15.3867 77.5586 15.0625C77.5703 14.9219 77.584 14.7871 77.5996 14.6582C77.6426 14.4863 77.7715 14.4062 77.9863 14.418C78.166 14.418 78.2773 14.4902 78.3203 14.6348C78.3711 14.8652 78.3984 15.0996 78.4023 15.3379C78.4102 15.5723 78.4043 15.8105 78.3848 16.0527C78.377 16.2676 78.3652 16.4785 78.3496 16.6855C78.3145 17.209 78.2969 17.7852 78.2969 18.4141C78.2969 18.4375 78.3066 18.4629 78.3262 18.4902C78.3496 18.5137 78.373 18.5312 78.3965 18.543C78.4238 18.5508 78.4551 18.541 78.4902 18.5137C78.5488 18.4629 78.6094 18.4121 78.6719 18.3613C78.7734 18.2754 78.875 18.1855 78.9766 18.0918C79.1484 17.9355 79.4453 17.6953 79.8672 17.3711C80.2891 17.043 80.707 16.7441 81.1211 16.4746C81.5391 16.2012 81.8262 16.0684 81.9824 16.0762ZM76.75 26.1836C76.9375 25.3516 77.0801 24.4355 77.1777 23.4355C77.2715 22.4395 77.3398 21.5078 77.3828 20.6406C77.0898 20.9336 76.832 21.3457 76.6094 21.877C76.3828 22.4121 76.1973 22.9883 76.0527 23.6055C75.9082 24.2266 75.8008 24.8066 75.7305 25.3457C75.6602 25.8887 75.625 26.3105 75.625 26.6113C75.6367 27.2559 75.7109 27.623 75.8477 27.7129C75.9844 27.8027 76.1387 27.6992 76.3105 27.4023C76.4824 27.1055 76.6289 26.6992 76.75 26.1836ZM88.1582 15.9883C88.0527 16.3164 87.8398 16.6934 87.5195 17.1191C87.2031 17.541 86.8066 17.8125 86.3301 17.9336C85.8535 18.0547 85.4414 18.0391 85.0938 17.8867C84.7461 17.7305 84.5547 17.3164 84.5195 16.6445C84.125 17.4102 83.748 17.9004 83.3887 18.1152C83.0332 18.3301 82.6621 18.4121 82.2754 18.3613C81.8379 18.291 81.543 18.1211 81.3906 17.8516C81.2344 17.582 81.1816 17.2715 81.2324 16.9199C81.2832 16.5645 81.3906 16.2246 81.5547 15.9004C81.6836 15.6582 81.8613 15.4336 82.0879 15.2266C82.3184 15.0195 82.5586 14.8574 82.8086 14.7402C83.1172 14.584 83.4277 14.5098 83.7402 14.5176C84.0527 14.5254 84.3867 14.6289 84.7422 14.8281C84.75 14.8359 84.7539 14.8281 84.7539 14.8047C84.7539 14.7695 84.7617 14.7266 84.7773 14.6758C84.7969 14.6211 84.8281 14.5781 84.8711 14.5469C84.9883 14.4609 85.127 14.418 85.2871 14.418C85.4473 14.418 85.5703 14.498 85.6562 14.6582C85.6719 14.8652 85.6504 15.1289 85.5918 15.4492C85.4629 16.1523 85.4629 16.6582 85.5918 16.9668C85.7207 17.2754 85.9473 17.4199 86.2715 17.4004C86.5996 17.377 87.0234 17.0547 87.543 16.4336C88.0625 15.8086 88.2676 15.6602 88.1582 15.9883ZM82.3926 17.6406C82.5723 17.7695 82.7773 17.752 83.0078 17.5879C83.2422 17.4238 83.4668 17.1914 83.6816 16.8906C83.8965 16.5898 84.0762 16.2891 84.2207 15.9883C84.3691 15.6875 84.4512 15.4648 84.4668 15.3203C84.0293 15.0859 83.6543 15.0469 83.3418 15.2031C83.0293 15.3555 82.7793 15.6074 82.5918 15.959C82.4082 16.3066 82.2988 16.6465 82.2637 16.9785C82.2285 17.3066 82.2715 17.5273 82.3926 17.6406ZM92.2012 16.1172C92.3809 16.0742 92.6133 15.9492 92.8984 15.7422C93.1836 15.5352 93.3125 15.5312 93.2852 15.7305C93.2578 15.9297 93.1016 16.0957 92.8164 16.2285C92.5352 16.3613 92.2754 16.457 92.0371 16.5156C91.9746 16.5352 91.9121 16.5684 91.8496 16.6152C91.791 16.6621 91.7539 16.7148 91.7383 16.7734C91.6953 17.0234 91.6094 17.2559 91.4805 17.4707C91.1445 17.9941 90.668 18.2012 90.0508 18.0918C89.8086 18.0293 89.6523 17.9102 89.582 17.7344C89.5156 17.5586 89.5508 17.3633 89.6875 17.1484C89.8789 16.8984 90.1152 16.7129 90.3965 16.5918C90.502 16.541 90.5977 16.5039 90.6836 16.4805C90.7266 16.4609 90.7773 16.4434 90.8359 16.4277C90.9492 16.3652 91.0098 16.2461 91.0176 16.0703C91.0254 15.8945 90.9844 15.7188 90.8945 15.543C90.8047 15.3672 90.6797 15.248 90.5195 15.1855C90.3594 15.1191 90.168 15.1758 89.9453 15.3555C89.7305 15.5547 89.5684 15.7871 89.459 16.0527C89.2012 16.584 89.0234 17.1426 88.9258 17.7285C88.7539 18.7598 88.6348 19.791 88.5684 20.8223C88.541 21.3027 88.4941 21.7793 88.4277 22.252C88.4004 22.4512 88.3789 22.6543 88.3633 22.8613C88.3516 22.9277 88.334 22.9961 88.3105 23.0664C88.2754 23.1953 88.1797 23.25 88.0234 23.2305C87.8633 23.2227 87.7773 23.1504 87.7656 23.0137C87.7578 22.8691 87.7578 22.7227 87.7656 22.5742C87.7656 22.5391 87.7656 22.5098 87.7656 22.4863C87.7773 22.3066 87.7871 22.125 87.7949 21.9414C87.8027 21.6172 87.8105 21.2949 87.8184 20.9746C87.8379 19.6699 87.8301 18.3555 87.7949 17.0312C87.7871 16.5352 87.7773 16.0449 87.7656 15.5605C87.7656 15.5098 87.7656 15.459 87.7656 15.4082C87.75 15.2363 87.7598 15.0684 87.7949 14.9043C87.8301 14.7402 87.9375 14.6465 88.1172 14.623C88.3047 14.6035 88.4199 14.6895 88.4629 14.8809C88.4629 14.8965 88.4629 14.9141 88.4629 14.9336C88.5254 15.3008 88.582 15.7852 88.6328 16.3867C88.7695 15.9844 88.9414 15.6602 89.1484 15.4141C89.3555 15.168 89.5996 14.9863 89.8809 14.8691C90.1152 14.7637 90.3555 14.7227 90.6016 14.7461C90.8516 14.7656 91.0781 14.8672 91.2812 15.0508C91.4844 15.2305 91.623 15.5 91.6973 15.8594C91.7324 16.0156 91.7793 16.1094 91.8379 16.1406C91.9004 16.168 92.0215 16.1602 92.2012 16.1172ZM90.4492 17.7168C90.6055 17.6309 90.7266 17.5176 90.8125 17.377C90.8984 17.2324 90.9434 17.1074 90.9473 17.002C90.9512 16.8926 90.9062 16.8516 90.8125 16.8789C90.5703 16.9727 90.4043 17.0957 90.3145 17.248C90.2246 17.3965 90.1934 17.5254 90.2207 17.6348C90.252 17.7402 90.3281 17.7676 90.4492 17.7168ZM99.5723 15.9883C99.4668 16.3164 99.2539 16.6934 98.9336 17.1191C98.6172 17.541 98.2207 17.8125 97.7441 17.9336C97.2676 18.0547 96.8555 18.0391 96.5078 17.8867C96.1602 17.7305 95.9688 17.3164 95.9336 16.6445C95.5391 17.4102 95.1621 17.9004 94.8027 18.1152C94.4473 18.3301 94.0762 18.4121 93.6895 18.3613C93.252 18.291 92.957 18.1211 92.8047 17.8516C92.6484 17.582 92.5957 17.2715 92.6465 16.9199C92.6973 16.5645 92.8047 16.2246 92.9688 15.9004C93.0977 15.6582 93.2754 15.4336 93.502 15.2266C93.7324 15.0195 93.9727 14.8574 94.2227 14.7402C94.5312 14.584 94.8418 14.5098 95.1543 14.5176C95.4668 14.5254 95.8008 14.6289 96.1562 14.8281C96.1641 14.8359 96.168 14.8281 96.168 14.8047C96.168 14.7695 96.1758 14.7266 96.1914 14.6758C96.2109 14.6211 96.2422 14.5781 96.2852 14.5469C96.4023 14.4609 96.541 14.418 96.7012 14.418C96.8613 14.418 96.9844 14.498 97.0703 14.6582C97.0859 14.8652 97.0645 15.1289 97.0059 15.4492C96.877 16.1523 96.877 16.6582 97.0059 16.9668C97.1348 17.2754 97.3613 17.4199 97.6855 17.4004C98.0137 17.377 98.4375 17.0547 98.957 16.4336C99.4766 15.8086 99.6816 15.6602 99.5723 15.9883ZM93.8066 17.6406C93.9863 17.7695 94.1914 17.752 94.4219 17.5879C94.6562 17.4238 94.8809 17.1914 95.0957 16.8906C95.3105 16.5898 95.4902 16.2891 95.6348 15.9883C95.7832 15.6875 95.8652 15.4648 95.8809 15.3203C95.4434 15.0859 95.0684 15.0469 94.7559 15.2031C94.4434 15.3555 94.1934 15.6074 94.0059 15.959C93.8223 16.3066 93.7129 16.6465 93.6777 16.9785C93.6426 17.3066 93.6855 17.5273 93.8066 17.6406ZM103.457 16.1816C103.672 15.9746 103.764 15.9238 103.732 16.0293C103.705 16.1309 103.588 16.3184 103.381 16.5918C103.174 16.8613 102.916 17.1543 102.607 17.4707C102.299 17.7871 101.973 18.0625 101.629 18.2969C101.285 18.5273 100.959 18.6523 100.65 18.6719C100.271 18.6719 99.9668 18.5605 99.7363 18.3379C99.5098 18.1113 99.3477 17.8145 99.25 17.4473C99.1523 17.0762 99.1113 16.6758 99.127 16.2461C99.1465 15.7656 99.1641 15.2852 99.1797 14.8047C99.1875 14.5625 99.1953 14.3262 99.2031 14.0957C99.2227 13.709 99.2363 13.3223 99.2441 12.9355C99.252 12.8145 99.2324 12.7129 99.1855 12.6309C99.1387 12.5488 99.0547 12.5039 98.9336 12.4961C98.7969 12.4883 98.625 12.4844 98.418 12.4844C98.2383 12.4844 98.084 12.4844 97.9551 12.4844C97.7754 12.4648 97.6562 12.418 97.5977 12.3438C97.5352 12.2656 97.582 12.1875 97.7383 12.1094C97.8477 12.0664 97.9805 12.043 98.1367 12.0391C98.2891 12.0352 98.4395 12.0371 98.5879 12.0449C98.6816 12.0527 98.7637 12.0566 98.834 12.0566C99.0645 12.0566 99.2051 12.0215 99.2559 11.9512C99.3066 11.877 99.3379 11.7324 99.3496 11.5176C99.3652 11.291 99.377 11.0625 99.3848 10.832C99.3926 10.7109 99.4023 10.5898 99.4141 10.4688C99.4141 10.2891 99.4609 10.127 99.5547 9.98242C99.6562 9.8457 99.7852 9.79297 99.9414 9.82422C100.078 9.85938 100.154 9.94531 100.17 10.082C100.182 10.3086 100.188 10.5371 100.188 10.7676C100.195 10.8965 100.195 11.0254 100.188 11.1543C100.188 11.291 100.191 11.4336 100.199 11.582C100.191 11.7852 100.215 11.9141 100.27 11.9688C100.324 12.0195 100.459 12.0449 100.674 12.0449C101.025 12.0449 101.373 12.0449 101.717 12.0449C101.873 12.0449 102.338 12.0352 103.111 12.0156C103.885 11.9922 104.301 12.0547 104.359 12.2031C104.422 12.3477 103.934 12.4316 102.895 12.4551C102.266 12.4902 101.779 12.5078 101.436 12.5078C101.205 12.5 100.998 12.4961 100.814 12.4961C100.506 12.4961 100.314 12.5508 100.24 12.6602C100.17 12.7656 100.139 12.9805 100.146 13.3047C100.139 13.582 100.125 13.918 100.105 14.3125C100.055 15.1211 100.029 15.9453 100.029 16.7852C100.049 17.3633 100.152 17.7383 100.34 17.9102C100.527 18.082 100.771 18.1152 101.072 18.0098C101.373 17.9004 101.697 17.709 102.045 17.4355C102.396 17.1582 102.744 16.8613 103.088 16.5449C103.162 16.4473 103.252 16.3555 103.357 16.2695C103.393 16.2383 103.426 16.209 103.457 16.1816ZM106.428 16.6211C106.307 16.8711 106.1 17.1484 105.807 17.4531C105.518 17.7578 105.188 17.9512 104.816 18.0332C104.449 18.1152 104.098 17.9883 103.762 17.6523C103.633 17.5039 103.537 17.334 103.475 17.1426C103.416 16.9473 103.395 16.7559 103.41 16.5684C103.41 16.5176 103.41 16.4531 103.41 16.375C103.41 16.1758 103.418 15.9453 103.434 15.6836C103.453 15.4219 103.492 15.1855 103.551 14.9746C103.613 14.7637 103.709 14.6367 103.838 14.5938C104.209 14.5 104.41 14.6289 104.441 14.9805C104.441 15.0938 104.438 15.207 104.43 15.3203C104.422 15.3789 104.418 15.4336 104.418 15.4844C104.41 15.6484 104.402 15.8125 104.395 15.9766C104.395 16.1055 104.389 16.2344 104.377 16.3633C104.369 16.9297 104.496 17.2676 104.758 17.377C105.02 17.4824 105.318 17.3672 105.654 17.0312C105.99 16.6953 106.209 16.416 106.311 16.1934C106.416 15.9707 106.492 15.9238 106.539 16.0527C106.586 16.1816 106.549 16.3711 106.428 16.6211ZM104.365 13.3867C104.314 13.4297 104.252 13.457 104.178 13.4688C104.107 13.4805 104.045 13.4746 103.99 13.4512C103.947 13.416 103.92 13.3711 103.908 13.3164C103.896 13.2578 103.891 13.1895 103.891 13.1113C103.891 13.0957 103.895 13.0801 103.902 13.0645C103.91 12.9941 103.928 12.9238 103.955 12.8535C104.033 12.666 104.195 12.5801 104.441 12.5957C104.527 12.6074 104.594 12.6426 104.641 12.7012C104.691 12.7598 104.703 12.8281 104.676 12.9062C104.617 13.0977 104.514 13.2578 104.365 13.3867Z" fill="black"/>
</svg>
