<svg width="24" height="24" viewBox="0 0 24 24" fill="none" xmlns="http://www.w3.org/2000/svg">
<path d="M12 10.3438C12.9062 10.3438 13.6562 11.0938 13.6562 12C13.6562 12.9375 12.9062 13.6875 12 13.6875C11.0625 13.6875 10.3125 12.9375 10.3125 12C10.3125 11.0938 11.0625 10.3438 12 10.3438ZM15.875 9.0625C16.1562 9.71875 16.0938 11.2812 16.0938 12C16.0938 12.75 16.1562 14.3125 15.875 14.9688C15.7188 15.4062 15.375 15.75 14.9375 15.9062C14.2812 16.1875 12.7188 16.125 12 16.125C11.25 16.125 9.6875 16.1875 9.03125 15.9062C8.59375 15.75 8.25 15.4062 8.09375 14.9688C7.84375 14.3125 7.875 12.75 7.875 12C7.875 11.2812 7.84375 9.71875 8.09375 9.0625C8.25 8.625 8.59375 8.28125 9.03125 8.125C9.6875 7.84375 11.25 7.90625 12 7.90625C12.7188 7.90625 14.2812 7.84375 14.9375 8.125C15.375 8.28125 15.7188 8.625 15.875 9.0625ZM12 14.5625V14.5938C13.4062 14.5938 14.5625 13.4375 14.5625 12.0312V12C14.5625 10.5938 13.4062 9.4375 12 9.4375C10.5625 9.4375 9.4375 10.5938 9.4375 12C9.4375 13.4375 10.5625 14.5625 12 14.5625ZM14.6562 9.9375C14.9688 9.9375 15.25 9.6875 15.25 9.34375C15.25 9 14.9688 8.75 14.6562 8.75C14.3125 8.75 14.0625 9 14.0625 9.34375C14.0625 9.6875 14.3125 9.9375 14.6562 9.9375ZM17.5 5C18.3125 5 19 5.6875 19 6.5V17.5C19 18.3438 18.3125 19 17.5 19H6.5C5.65625 19 5 18.3438 5 17.5V6.5C5 5.6875 5.65625 5 6.5 5H17.5ZM16.9375 14.0625C17 13.25 17 10.7812 16.9375 9.96875C16.9062 9.15625 16.7188 8.4375 16.1562 7.875C15.5625 7.28125 14.8438 7.09375 14.0625 7.0625C13.2188 7 10.75 7 9.9375 7.0625C9.125 7.09375 8.40625 7.28125 7.84375 7.84375C7.25 8.4375 7.0625 9.15625 7.03125 9.9375C6.96875 10.7812 6.96875 13.25 7.03125 14.0625C7.0625 14.875 7.25 15.5938 7.84375 16.1562C8.40625 16.75 9.125 16.9375 9.9375 16.9688C10.75 17.0312 13.2188 17.0312 14.0625 16.9688C14.8438 16.9375 15.5625 16.75 16.1562 16.1562C16.7188 15.5938 16.9062 14.875 16.9375 14.0625Z" fill="#ABB2BF"/>
</svg>
